<svg xmlns="http://www.w3.org/2000/svg" xmlns:xlink="http://www.w3.org/1999/xlink" width="500" zoomAndPan="magnify" viewBox="0 0 375 374.999991" height="500" preserveAspectRatio="xMidYMid meet" version="1.0"><defs><clipPath id="43223ef8ff"><path d="M 0.476562 0.390625 L 186.523438 0.390625 L 186.523438 216.960938 L 0.476562 216.960938 Z M 0.476562 0.390625 " clip-rule="nonzero"/></clipPath><clipPath id="f476c7bc13"><path d="M 93.5 0.390625 L 186.523438 54.511719 L 186.523438 162.757812 L 93.5 216.882812 L 0.476562 162.757812 L 0.476562 54.511719 Z M 93.5 0.390625 " clip-rule="nonzero"/></clipPath><clipPath id="69a97a94ca"><path d="M 0.476562 0.390625 L 186.523438 0.390625 L 186.523438 216.960938 L 0.476562 216.960938 Z M 0.476562 0.390625 " clip-rule="nonzero"/></clipPath><clipPath id="124eb29bde"><path d="M 93.5 0.390625 L 186.523438 54.511719 L 186.523438 162.757812 L 93.5 216.882812 L 0.476562 162.757812 L 0.476562 54.511719 Z M 93.5 0.390625 " clip-rule="nonzero"/></clipPath><clipPath id="ca29a596fa"><rect x="0" width="187" y="0" height="217"/></clipPath><clipPath id="f3a99d90d0"><path d="M 23.734375 29.660156 L 163.265625 29.660156 L 163.265625 220.976562 L 23.734375 220.976562 Z M 23.734375 29.660156 " clip-rule="nonzero"/></clipPath><clipPath id="8e34e28a5d"><path d="M 93.5 29.660156 L 163.265625 70.253906 L 163.265625 180.015625 L 93.5 220.609375 L 23.734375 180.015625 L 23.734375 70.253906 Z M 93.5 29.660156 " clip-rule="nonzero"/></clipPath><clipPath id="9ba34a84a6"><path d="M 0.734375 0.660156 L 140.265625 0.660156 L 140.265625 191.839844 L 0.734375 191.839844 Z M 0.734375 0.660156 " clip-rule="nonzero"/></clipPath><clipPath id="2d6280c172"><path d="M 70.5 0.660156 L 140.265625 41.253906 L 140.265625 151.015625 L 70.5 191.609375 L 0.734375 151.015625 L 0.734375 41.253906 Z M 70.5 0.660156 " clip-rule="nonzero"/></clipPath><clipPath id="8ecabf66fd"><rect x="0" width="141" y="0" height="192"/></clipPath><clipPath id="ca117ae0f1"><path d="M 23.734375 0.390625 L 46.988281 0.390625 L 46.988281 43.398438 L 23.734375 43.398438 Z M 23.734375 0.390625 " clip-rule="nonzero"/></clipPath><clipPath id="d8b179ade1"><path d="M 0.734375 0.390625 L 23.988281 0.390625 L 23.988281 43.398438 L 0.734375 43.398438 Z M 0.734375 0.390625 " clip-rule="nonzero"/></clipPath><clipPath id="6165175b63"><rect x="0" width="24" y="0" height="44"/></clipPath><clipPath id="1e19e27274"><path d="M 0.476562 135.6875 L 23.734375 135.6875 L 23.734375 178.695312 L 0.476562 178.695312 Z M 0.476562 135.6875 " clip-rule="nonzero"/></clipPath><clipPath id="eb132f4c88"><path d="M 0.476562 0.6875 L 23.734375 0.6875 L 23.734375 43.695312 L 0.476562 43.695312 Z M 0.476562 0.6875 " clip-rule="nonzero"/></clipPath><clipPath id="40a0c90743"><rect x="0" width="24" y="0" height="44"/></clipPath><clipPath id="e270dd9710"><path d="M 163.265625 135.6875 L 186.523438 135.6875 L 186.523438 178.695312 L 163.265625 178.695312 Z M 163.265625 135.6875 " clip-rule="nonzero"/></clipPath><clipPath id="851ab8c9af"><path d="M 0.265625 0.6875 L 23.523438 0.6875 L 23.523438 43.695312 L 0.265625 43.695312 Z M 0.265625 0.6875 " clip-rule="nonzero"/></clipPath><clipPath id="645047a805"><rect x="0" width="24" y="0" height="44"/></clipPath><clipPath id="7eff2d8122"><rect x="0" width="187" y="0" height="222"/></clipPath></defs><rect x="-37.5" width="450" fill="#ffffff" y="-37.499999" height="449.999989" fill-opacity="1"/><rect x="-37.5" width="450" fill="#03b5ff" y="-37.499999" height="449.999989" fill-opacity="1"/><g transform="matrix(1, 0, 0, 1, 94, 77)"><g clip-path="url(#7eff2d8122)"><g clip-path="url(#43223ef8ff)"><g clip-path="url(#f476c7bc13)"><g><g clip-path="url(#ca29a596fa)"><g clip-path="url(#69a97a94ca)"><g clip-path="url(#124eb29bde)"><path fill="#ffffff" d="M 0.476562 0.390625 L 186.523438 0.390625 L 186.523438 216.960938 L 0.476562 216.960938 Z M 0.476562 0.390625 " fill-opacity="1" fill-rule="nonzero"/></g></g></g></g></g></g><g clip-path="url(#f3a99d90d0)"><g clip-path="url(#8e34e28a5d)"><g transform="matrix(1, 0, 0, 1, 23, 29)"><g clip-path="url(#8ecabf66fd)"><g clip-path="url(#9ba34a84a6)"><g clip-path="url(#2d6280c172)"><path fill="#03b5ff" d="M 0.734375 0.660156 L 140.265625 0.660156 L 140.265625 191.429688 L 0.734375 191.429688 Z M 0.734375 0.660156 " fill-opacity="1" fill-rule="nonzero"/></g></g></g></g></g></g><g clip-path="url(#ca117ae0f1)"><g transform="matrix(1, 0, 0, 1, 23, 0)"><g clip-path="url(#6165175b63)"><g clip-path="url(#d8b179ade1)"><path fill="#ffffff" d="M 0.734375 0.390625 L 23.988281 0.390625 L 23.988281 43.359375 L 0.734375 43.359375 Z M 0.734375 0.390625 " fill-opacity="1" fill-rule="nonzero"/></g></g></g></g><g clip-path="url(#1e19e27274)"><g transform="matrix(1, 0, 0, 1, 0, 135)"><g clip-path="url(#40a0c90743)"><g clip-path="url(#eb132f4c88)"><path fill="#ffffff" d="M 0.476562 0.6875 L 23.734375 0.6875 L 23.734375 43.65625 L 0.476562 43.65625 Z M 0.476562 0.6875 " fill-opacity="1" fill-rule="nonzero"/></g></g></g></g><g clip-path="url(#e270dd9710)"><g transform="matrix(1, 0, 0, 1, 163, 135)"><g clip-path="url(#645047a805)"><g clip-path="url(#851ab8c9af)"><path fill="#ffffff" d="M 0.265625 0.6875 L 23.523438 0.6875 L 23.523438 43.65625 L 0.265625 43.65625 Z M 0.265625 0.6875 " fill-opacity="1" fill-rule="nonzero"/></g></g></g></g></g></g></svg>