<svg xmlns="http://www.w3.org/2000/svg" xmlns:xlink="http://www.w3.org/1999/xlink" width="500" zoomAndPan="magnify" viewBox="0 0 375 374.999991" height="500" preserveAspectRatio="xMidYMid meet" version="1.0"><defs><clipPath id="5ef69e7d19"><path d="M 94.476562 77.390625 L 280.523438 77.390625 L 280.523438 293.960938 L 94.476562 293.960938 Z M 94.476562 77.390625 " clip-rule="nonzero"/></clipPath><clipPath id="e9b111fa16"><path d="M 187.5 77.390625 L 280.523438 131.511719 L 280.523438 239.757812 L 187.5 293.882812 L 94.476562 239.757812 L 94.476562 131.511719 Z M 187.5 77.390625 " clip-rule="nonzero"/></clipPath><clipPath id="5f9060d1e6"><path d="M 0.476562 0.390625 L 186.523438 0.390625 L 186.523438 216.960938 L 0.476562 216.960938 Z M 0.476562 0.390625 " clip-rule="nonzero"/></clipPath><clipPath id="40e455bad2"><path d="M 93.5 0.390625 L 186.523438 54.511719 L 186.523438 162.757812 L 93.5 216.882812 L 0.476562 162.757812 L 0.476562 54.511719 Z M 93.5 0.390625 " clip-rule="nonzero"/></clipPath><clipPath id="d8952a8954"><rect x="0" width="187" y="0" height="217"/></clipPath><clipPath id="07540a495f"><path d="M 117.734375 106.660156 L 257.265625 106.660156 L 257.265625 297.976562 L 117.734375 297.976562 Z M 117.734375 106.660156 " clip-rule="nonzero"/></clipPath><clipPath id="80ec5eb364"><path d="M 187.5 106.660156 L 257.265625 147.253906 L 257.265625 257.015625 L 187.5 297.609375 L 117.734375 257.015625 L 117.734375 147.253906 Z M 187.5 106.660156 " clip-rule="nonzero"/></clipPath><clipPath id="80f21dfda8"><path d="M 0.734375 0.660156 L 140.265625 0.660156 L 140.265625 191.839844 L 0.734375 191.839844 Z M 0.734375 0.660156 " clip-rule="nonzero"/></clipPath><clipPath id="f50e02bf4e"><path d="M 70.5 0.660156 L 140.265625 41.253906 L 140.265625 151.015625 L 70.5 191.609375 L 0.734375 151.015625 L 0.734375 41.253906 Z M 70.5 0.660156 " clip-rule="nonzero"/></clipPath><clipPath id="ec14995a8f"><rect x="0" width="141" y="0" height="192"/></clipPath><clipPath id="aaf4a09e6b"><path d="M 117.734375 77.390625 L 140.988281 77.390625 L 140.988281 120.398438 L 117.734375 120.398438 Z M 117.734375 77.390625 " clip-rule="nonzero"/></clipPath><clipPath id="c7a1e05214"><path d="M 0.734375 0.390625 L 23.988281 0.390625 L 23.988281 43.398438 L 0.734375 43.398438 Z M 0.734375 0.390625 " clip-rule="nonzero"/></clipPath><clipPath id="5951161718"><rect x="0" width="24" y="0" height="44"/></clipPath><clipPath id="5b94b5142c"><path d="M 94.476562 212.6875 L 117.734375 212.6875 L 117.734375 255.695312 L 94.476562 255.695312 Z M 94.476562 212.6875 " clip-rule="nonzero"/></clipPath><clipPath id="9b41ae4eca"><path d="M 0.476562 0.6875 L 23.734375 0.6875 L 23.734375 43.695312 L 0.476562 43.695312 Z M 0.476562 0.6875 " clip-rule="nonzero"/></clipPath><clipPath id="ac4b7b58cb"><rect x="0" width="24" y="0" height="44"/></clipPath><clipPath id="1940fe1d14"><path d="M 257.265625 212.6875 L 280.523438 212.6875 L 280.523438 255.695312 L 257.265625 255.695312 Z M 257.265625 212.6875 " clip-rule="nonzero"/></clipPath><clipPath id="2e87c49e9c"><path d="M 0.265625 0.6875 L 23.523438 0.6875 L 23.523438 43.695312 L 0.265625 43.695312 Z M 0.265625 0.6875 " clip-rule="nonzero"/></clipPath><clipPath id="258b7031f0"><rect x="0" width="24" y="0" height="44"/></clipPath></defs><rect x="-37.5" width="450" fill="#ffffff" y="-37.499999" height="449.999989" fill-opacity="1"/><rect x="-37.5" width="450" fill="#ffffff" y="-37.499999" height="449.999989" fill-opacity="1"/><g clip-path="url(#5ef69e7d19)"><g clip-path="url(#e9b111fa16)"><g transform="matrix(1, 0, 0, 1, 94, 77)"><g clip-path="url(#d8952a8954)"><g clip-path="url(#5f9060d1e6)"><g clip-path="url(#40e455bad2)"><path fill="#03b5ff" d="M 0.476562 0.390625 L 186.523438 0.390625 L 186.523438 216.960938 L 0.476562 216.960938 Z M 0.476562 0.390625 " fill-opacity="1" fill-rule="nonzero"/></g></g></g></g></g></g><g clip-path="url(#07540a495f)"><g clip-path="url(#80ec5eb364)"><g transform="matrix(1, 0, 0, 1, 117, 106)"><g clip-path="url(#ec14995a8f)"><g clip-path="url(#80f21dfda8)"><g clip-path="url(#f50e02bf4e)"><path fill="#ffffff" d="M 0.734375 0.660156 L 140.265625 0.660156 L 140.265625 191.429688 L 0.734375 191.429688 Z M 0.734375 0.660156 " fill-opacity="1" fill-rule="nonzero"/></g></g></g></g></g></g><g clip-path="url(#aaf4a09e6b)"><g transform="matrix(1, 0, 0, 1, 117, 77)"><g clip-path="url(#5951161718)"><g clip-path="url(#c7a1e05214)"><path fill="#03b5ff" d="M 0.734375 0.390625 L 23.988281 0.390625 L 23.988281 43.359375 L 0.734375 43.359375 Z M 0.734375 0.390625 " fill-opacity="1" fill-rule="nonzero"/></g></g></g></g><g clip-path="url(#5b94b5142c)"><g transform="matrix(1, 0, 0, 1, 94, 212)"><g clip-path="url(#ac4b7b58cb)"><g clip-path="url(#9b41ae4eca)"><path fill="#03b5ff" d="M 0.476562 0.6875 L 23.734375 0.6875 L 23.734375 43.65625 L 0.476562 43.65625 Z M 0.476562 0.6875 " fill-opacity="1" fill-rule="nonzero"/></g></g></g></g><g clip-path="url(#1940fe1d14)"><g transform="matrix(1, 0, 0, 1, 257, 212)"><g clip-path="url(#258b7031f0)"><g clip-path="url(#2e87c49e9c)"><path fill="#03b5ff" d="M 0.265625 0.6875 L 23.523438 0.6875 L 23.523438 43.65625 L 0.265625 43.65625 Z M 0.265625 0.6875 " fill-opacity="1" fill-rule="nonzero"/></g></g></g></g></svg>