<svg xmlns="http://www.w3.org/2000/svg" xmlns:xlink="http://www.w3.org/1999/xlink" width="500" zoomAndPan="magnify" viewBox="0 0 375 374.999991" height="500" preserveAspectRatio="xMidYMid meet" version="1.0"><defs><g/><clipPath id="c5b24beadc"><path d="M 67 13 L 287.761719 13 L 287.761719 63 L 67 63 Z M 67 13 " clip-rule="nonzero"/></clipPath><clipPath id="e57fd3f137"><rect x="0" width="221" y="0" height="50"/></clipPath><clipPath id="cf8241e713"><path d="M 0.257812 0.0117188 L 64.355469 0.0117188 L 64.355469 74.628906 L 0.257812 74.628906 Z M 0.257812 0.0117188 " clip-rule="nonzero"/></clipPath><clipPath id="c4b08e4bc0"><path d="M 32.304688 0.0117188 L 64.355469 18.660156 L 64.355469 55.953125 L 32.304688 74.601562 L 0.257812 55.953125 L 0.257812 18.660156 Z M 32.304688 0.0117188 " clip-rule="nonzero"/></clipPath><clipPath id="043df4a1e5"><path d="M 0.257812 0.0117188 L 64.355469 0.0117188 L 64.355469 74.628906 L 0.257812 74.628906 Z M 0.257812 0.0117188 " clip-rule="nonzero"/></clipPath><clipPath id="099d2caf0a"><path d="M 32.304688 0.0117188 L 64.355469 18.660156 L 64.355469 55.953125 L 32.304688 74.601562 L 0.257812 55.953125 L 0.257812 18.660156 Z M 32.304688 0.0117188 " clip-rule="nonzero"/></clipPath><clipPath id="83875b900f"><rect x="0" width="65" y="0" height="75"/></clipPath><clipPath id="9740806364"><path d="M 8.269531 10.097656 L 56.34375 10.097656 L 56.34375 76 L 8.269531 76 Z M 8.269531 10.097656 " clip-rule="nonzero"/></clipPath><clipPath id="0a50d5a85a"><path d="M 32.304688 10.097656 L 56.34375 24.082031 L 56.34375 61.898438 L 32.304688 75.886719 L 8.269531 61.898438 L 8.269531 24.082031 Z M 32.304688 10.097656 " clip-rule="nonzero"/></clipPath><clipPath id="eee96630bc"><path d="M 0.269531 0.0976562 L 48.34375 0.0976562 L 48.34375 66 L 0.269531 66 Z M 0.269531 0.0976562 " clip-rule="nonzero"/></clipPath><clipPath id="6f5fea982d"><path d="M 24.304688 0.0976562 L 48.34375 14.082031 L 48.34375 51.898438 L 24.304688 65.886719 L 0.269531 51.898438 L 0.269531 14.082031 Z M 24.304688 0.0976562 " clip-rule="nonzero"/></clipPath><clipPath id="be8e2ef017"><rect x="0" width="49" y="0" height="66"/></clipPath><clipPath id="3398a7b698"><path d="M 8.269531 0.0117188 L 16.28125 0.0117188 L 16.28125 14.828125 L 8.269531 14.828125 Z M 8.269531 0.0117188 " clip-rule="nonzero"/></clipPath><clipPath id="3939dacaf6"><path d="M 0.269531 0.0117188 L 8.28125 0.0117188 L 8.28125 14.828125 L 0.269531 14.828125 Z M 0.269531 0.0117188 " clip-rule="nonzero"/></clipPath><clipPath id="41936e192d"><rect x="0" width="9" y="0" height="15"/></clipPath><clipPath id="8059b508cd"><path d="M 0.257812 46.628906 L 8.269531 46.628906 L 8.269531 61.445312 L 0.257812 61.445312 Z M 0.257812 46.628906 " clip-rule="nonzero"/></clipPath><clipPath id="f6eb38ebe0"><path d="M 0.257812 0.628906 L 8.269531 0.628906 L 8.269531 15.445312 L 0.257812 15.445312 Z M 0.257812 0.628906 " clip-rule="nonzero"/></clipPath><clipPath id="9dcbd32cf7"><rect x="0" width="9" y="0" height="16"/></clipPath><clipPath id="8f7bff4314"><path d="M 56.34375 46.628906 L 64.355469 46.628906 L 64.355469 61.445312 L 56.34375 61.445312 Z M 56.34375 46.628906 " clip-rule="nonzero"/></clipPath><clipPath id="9c23fd1310"><path d="M 0.34375 0.628906 L 8.355469 0.628906 L 8.355469 15.445312 L 0.34375 15.445312 Z M 0.34375 0.628906 " clip-rule="nonzero"/></clipPath><clipPath id="12cd78ce0e"><rect x="0" width="9" y="0" height="16"/></clipPath><clipPath id="3bd65280a7"><rect x="0" width="288" y="0" height="77"/></clipPath></defs><g transform="matrix(1, 0, 0, 1, 42, 162)"><g clip-path="url(#3bd65280a7)"><g clip-path="url(#c5b24beadc)"><g transform="matrix(1, 0, 0, 1, 67, 13)"><g clip-path="url(#e57fd3f137)"><g fill="#03b5ff" fill-opacity="1"><g transform="translate(0.691352, 38.750216)"><g><path d="M 34.046875 -31.09375 L 34.046875 0 L 30.53125 0 L 30.53125 -25.734375 L 19.015625 -10.9375 L 7.328125 -25.734375 L 7.328125 0 L 3.796875 0 L 3.796875 -31.09375 L 7.890625 -31.09375 L 19.015625 -16.34375 L 29.96875 -31.09375 Z M 34.046875 -31.09375 "/></g></g></g><g fill="#03b5ff" fill-opacity="1"><g transform="translate(38.538565, 38.750216)"><g><path d="M 21.375 -3.75 C 19.488281 -1 16.6875 0.375 12.96875 0.375 C 9.582031 0.375 6.828125 -0.796875 4.703125 -3.140625 C 2.628906 -5.460938 1.59375 -8.328125 1.59375 -11.734375 C 1.59375 -15.148438 2.628906 -18.019531 4.703125 -20.34375 C 6.828125 -22.6875 9.65625 -23.859375 13.1875 -23.859375 C 16.726562 -23.859375 19.457031 -22.46875 21.375 -19.6875 L 21.375 -23.484375 L 24.890625 -23.484375 L 24.890625 0 L 21.375 0 Z M 13.4375 -2.8125 C 15.96875 -2.8125 17.96875 -3.691406 19.4375 -5.453125 C 20.851562 -7.109375 21.5625 -9.203125 21.5625 -11.734375 C 21.5625 -14.273438 20.851562 -16.375 19.4375 -18.03125 C 17.96875 -19.789062 15.96875 -20.671875 13.4375 -20.671875 C 10.925781 -20.671875 8.890625 -19.789062 7.328125 -18.03125 C 5.859375 -16.375 5.125 -14.273438 5.125 -11.734375 C 5.125 -9.203125 5.859375 -7.109375 7.328125 -5.453125 C 8.890625 -3.691406 10.925781 -2.8125 13.4375 -2.8125 Z M 13.109375 -31.703125 L 18.140625 -31.703125 L 13.109375 -26.765625 L 10.25 -26.765625 Z M 13.109375 -31.703125 "/></g></g></g><g fill="#03b5ff" fill-opacity="1"><g transform="translate(66.477892, 38.750216)"><g><path d="M 16.859375 -17.1875 C 16.546875 -19.632812 14.582031 -20.859375 10.96875 -20.859375 C 7.351562 -20.859375 5.546875 -19.726562 5.546875 -17.46875 C 5.546875 -16.53125 5.925781 -15.816406 6.6875 -15.328125 C 7.457031 -14.847656 8.421875 -14.453125 9.578125 -14.140625 C 10.734375 -13.828125 11.992188 -13.535156 13.359375 -13.265625 C 14.722656 -13.003906 15.984375 -12.628906 17.140625 -12.140625 C 18.296875 -11.648438 19.257812 -10.984375 20.03125 -10.140625 C 20.800781 -9.296875 21.1875 -8.140625 21.1875 -6.671875 C 21.1875 -4.378906 20.320312 -2.628906 18.59375 -1.421875 C 16.875 -0.222656 14.539062 0.375 11.59375 0.375 C 8.46875 0.375 5.984375 -0.40625 4.140625 -1.96875 C 2.441406 -3.351562 1.53125 -5.15625 1.40625 -7.375 L 5.078125 -7.375 C 5.296875 -5.21875 6.515625 -3.757812 8.734375 -3 C 9.546875 -2.75 10.351562 -2.625 11.15625 -2.625 C 11.957031 -2.625 12.703125 -2.671875 13.390625 -2.765625 C 14.078125 -2.859375 14.75 -3.03125 15.40625 -3.28125 C 16.90625 -3.882812 17.65625 -4.90625 17.65625 -6.34375 C 17.65625 -7.3125 17.269531 -8.050781 16.5 -8.5625 C 15.738281 -9.082031 14.78125 -9.503906 13.625 -9.828125 C 12.46875 -10.160156 11.207031 -10.457031 9.84375 -10.71875 C 8.476562 -10.988281 7.21875 -11.359375 6.0625 -11.828125 C 4.90625 -12.304688 3.941406 -12.953125 3.171875 -13.765625 C 2.398438 -14.578125 2.015625 -15.703125 2.015625 -17.140625 C 2.015625 -19.273438 2.789062 -20.925781 4.34375 -22.09375 C 5.894531 -23.269531 8.1875 -23.859375 11.21875 -23.859375 C 14.101562 -23.859375 16.375 -23.171875 18.03125 -21.796875 C 19.414062 -20.640625 20.21875 -19.101562 20.4375 -17.1875 Z M 16.859375 -17.1875 "/></g></g></g><g fill="#03b5ff" fill-opacity="1"><g transform="translate(89.111093, 38.750216)"><g><path d="M 28.9375 -31.09375 L 28.9375 0 L 25.40625 0 L 25.40625 -13.859375 L 7.328125 -13.859375 L 7.328125 0 L 3.796875 0 L 3.796875 -31.09375 L 7.328125 -31.09375 L 7.328125 -17.28125 L 25.40625 -17.28125 L 25.40625 -31.09375 Z M 28.9375 -31.09375 "/></g></g></g><g fill="#03b5ff" fill-opacity="1"><g transform="translate(121.840016, 38.750216)"><g><path d="M 13.25 -23.859375 C 16.75 -23.859375 19.597656 -22.6875 21.796875 -20.34375 C 23.859375 -18.082031 24.890625 -15.210938 24.890625 -11.734375 C 24.890625 -8.265625 23.859375 -5.398438 21.796875 -3.140625 C 19.597656 -0.796875 16.75 0.375 13.25 0.375 C 9.738281 0.375 6.890625 -0.796875 4.703125 -3.140625 C 2.628906 -5.398438 1.59375 -8.265625 1.59375 -11.734375 C 1.59375 -15.210938 2.628906 -18.082031 4.703125 -20.34375 C 6.890625 -22.6875 9.738281 -23.859375 13.25 -23.859375 Z M 13.25 -2.8125 C 15.78125 -2.8125 17.78125 -3.691406 19.25 -5.453125 C 20.664062 -7.109375 21.375 -9.203125 21.375 -11.734375 C 21.375 -14.273438 20.664062 -16.375 19.25 -18.03125 C 17.78125 -19.789062 15.78125 -20.671875 13.25 -20.671875 C 10.707031 -20.671875 8.703125 -19.789062 7.234375 -18.03125 C 5.828125 -16.375 5.125 -14.273438 5.125 -11.734375 C 5.125 -9.203125 5.828125 -7.109375 7.234375 -5.453125 C 8.703125 -3.691406 10.707031 -2.8125 13.25 -2.8125 Z M 13.25 -2.8125 "/></g></g></g><g fill="#03b5ff" fill-opacity="1"><g transform="translate(148.323679, 38.750216)"><g><path d="M 21.375 -19.734375 L 21.375 -23.484375 L 24.890625 -23.484375 L 24.890625 -0.703125 C 24.890625 2.679688 23.925781 5.253906 22 7.015625 C 20.070312 8.785156 17.476562 9.671875 14.21875 9.671875 C 10.96875 9.671875 8.425781 9.046875 6.59375 7.796875 C 4.757812 6.546875 3.515625 4.882812 2.859375 2.8125 L 6.765625 2.8125 C 7.765625 5.257812 10.050781 6.484375 13.625 6.484375 C 16.34375 6.484375 18.3125 5.851562 19.53125 4.59375 C 20.757812 3.34375 21.375 1.5 21.375 -0.9375 L 21.375 -4.1875 C 19.457031 -1.394531 16.65625 0 12.96875 0 C 9.582031 0 6.828125 -1.15625 4.703125 -3.46875 C 2.628906 -5.726562 1.59375 -8.550781 1.59375 -11.9375 C 1.59375 -15.3125 2.628906 -18.128906 4.703125 -20.390625 C 6.828125 -22.703125 9.664062 -23.859375 13.21875 -23.859375 C 16.769531 -23.859375 19.488281 -22.484375 21.375 -19.734375 Z M 13.4375 -3.1875 C 14.71875 -3.1875 15.859375 -3.414062 16.859375 -3.875 C 17.859375 -4.332031 18.71875 -4.953125 19.4375 -5.734375 C 20.851562 -7.359375 21.5625 -9.425781 21.5625 -11.9375 C 21.5625 -14.4375 20.851562 -16.5 19.4375 -18.125 C 17.90625 -19.820312 15.90625 -20.671875 13.4375 -20.671875 C 10.894531 -20.671875 8.859375 -19.820312 7.328125 -18.125 C 5.859375 -16.46875 5.125 -14.40625 5.125 -11.9375 C 5.125 -9.457031 5.859375 -7.390625 7.328125 -5.734375 C 8.859375 -4.035156 10.894531 -3.1875 13.4375 -3.1875 Z M 13.4375 -3.1875 "/></g></g></g><g fill="#03b5ff" fill-opacity="1"><g transform="translate(176.263005, 38.750216)"><g><path d="M 21.375 -3.75 C 19.488281 -1 16.6875 0.375 12.96875 0.375 C 9.582031 0.375 6.828125 -0.796875 4.703125 -3.140625 C 2.628906 -5.460938 1.59375 -8.328125 1.59375 -11.734375 C 1.59375 -15.148438 2.628906 -18.019531 4.703125 -20.34375 C 6.828125 -22.6875 9.65625 -23.859375 13.1875 -23.859375 C 16.726562 -23.859375 19.457031 -22.46875 21.375 -19.6875 L 21.375 -23.484375 L 24.890625 -23.484375 L 24.890625 0 L 21.375 0 Z M 13.4375 -2.8125 C 15.96875 -2.8125 17.96875 -3.691406 19.4375 -5.453125 C 20.851562 -7.109375 21.5625 -9.203125 21.5625 -11.734375 C 21.5625 -14.273438 20.851562 -16.375 19.4375 -18.03125 C 17.96875 -19.789062 15.96875 -20.671875 13.4375 -20.671875 C 10.925781 -20.671875 8.890625 -19.789062 7.328125 -18.03125 C 5.859375 -16.375 5.125 -14.273438 5.125 -11.734375 C 5.125 -9.203125 5.859375 -7.109375 7.328125 -5.453125 C 8.890625 -3.691406 10.925781 -2.8125 13.4375 -2.8125 Z M 13.4375 -2.8125 "/></g></g></g><g fill="#03b5ff" fill-opacity="1"><g transform="translate(204.202332, 38.750216)"><g><path d="M 15.453125 -23.859375 L 15.453125 -20.34375 L 15.03125 -20.34375 C 12.488281 -20.34375 10.421875 -19.320312 8.828125 -17.28125 C 7.328125 -15.34375 6.578125 -13.023438 6.578125 -10.328125 L 6.578125 0 L 3.046875 0 L 3.046875 -23.484375 L 6.578125 -23.484375 L 6.578125 -17.703125 C 7.328125 -20.148438 8.953125 -21.953125 11.453125 -23.109375 C 12.492188 -23.609375 13.75 -23.859375 15.21875 -23.859375 Z M 15.453125 -23.859375 "/></g></g></g></g></g></g><g clip-path="url(#cf8241e713)"><g clip-path="url(#c4b08e4bc0)"><g><g clip-path="url(#83875b900f)"><g clip-path="url(#043df4a1e5)"><g clip-path="url(#099d2caf0a)"><path fill="#03b5ff" d="M 0.257812 0.0117188 L 64.355469 0.0117188 L 64.355469 74.628906 L 0.257812 74.628906 Z M 0.257812 0.0117188 " fill-opacity="1" fill-rule="nonzero"/></g></g></g></g></g></g><g clip-path="url(#9740806364)"><g clip-path="url(#0a50d5a85a)"><g transform="matrix(1, 0, 0, 1, 8, 10)"><g clip-path="url(#be8e2ef017)"><g clip-path="url(#eee96630bc)"><g clip-path="url(#6f5fea982d)"><path fill="#ffffff" d="M 0.269531 0.0976562 L 48.34375 0.0976562 L 48.34375 65.824219 L 0.269531 65.824219 Z M 0.269531 0.0976562 " fill-opacity="1" fill-rule="nonzero"/></g></g></g></g></g></g><g clip-path="url(#3398a7b698)"><g transform="matrix(1, 0, 0, 1, 8, 0)"><g clip-path="url(#41936e192d)"><g clip-path="url(#3939dacaf6)"><path fill="#03b5ff" d="M 0.269531 0.0117188 L 8.28125 0.0117188 L 8.28125 14.816406 L 0.269531 14.816406 Z M 0.269531 0.0117188 " fill-opacity="1" fill-rule="nonzero"/></g></g></g></g><g clip-path="url(#8059b508cd)"><g transform="matrix(1, 0, 0, 1, 0, 46)"><g clip-path="url(#9dcbd32cf7)"><g clip-path="url(#f6eb38ebe0)"><path fill="#03b5ff" d="M 0.257812 0.628906 L 8.269531 0.628906 L 8.269531 15.429688 L 0.257812 15.429688 Z M 0.257812 0.628906 " fill-opacity="1" fill-rule="nonzero"/></g></g></g></g><g clip-path="url(#8f7bff4314)"><g transform="matrix(1, 0, 0, 1, 56, 46)"><g clip-path="url(#12cd78ce0e)"><g clip-path="url(#9c23fd1310)"><path fill="#03b5ff" d="M 0.34375 0.628906 L 8.355469 0.628906 L 8.355469 15.429688 L 0.34375 15.429688 Z M 0.34375 0.628906 " fill-opacity="1" fill-rule="nonzero"/></g></g></g></g></g></g></svg>